<svg width="373" height="56" viewBox="0 0 373 56" fill="none" xmlns="http://www.w3.org/2000/svg">
<rect x="0.933105" width="372" height="56" rx="8" fill="#F5F5F5"/>
<path d="M36.9331 36L33.1554 32.2156M35.2489 27.1579C35.2489 29.0563 34.4948 30.8769 33.1524 32.2193C31.81 33.5617 29.9894 34.3158 28.091 34.3158C26.1926 34.3158 24.372 33.5617 23.0296 32.2193C21.6872 30.8769 20.9331 29.0563 20.9331 27.1579C20.9331 25.2595 21.6872 23.4389 23.0296 22.0965C24.372 20.7541 26.1926 20 28.091 20C29.9894 20 31.81 20.7541 33.1524 22.0965C34.4948 23.4389 35.2489 25.2595 35.2489 27.1579V27.1579Z" stroke="#989898" stroke-width="1.5" stroke-linecap="round"/>
<path opacity="0.5" d="M49.4048 30.252H50.9155C50.9702 30.7396 51.214 31.1315 51.647 31.4277C52.0799 31.724 52.6222 31.8721 53.2739 31.8721C53.8937 31.8721 54.4041 31.7285 54.8052 31.4414C55.2108 31.1543 55.4136 30.7897 55.4136 30.3477C55.4136 29.9648 55.27 29.6527 54.9829 29.4111C54.6958 29.165 54.2332 28.9645 53.5952 28.8096L52.3169 28.502C51.41 28.2832 50.7401 27.9574 50.3071 27.5244C49.8787 27.0915 49.6646 26.5309 49.6646 25.8428C49.6646 24.9951 49.9972 24.3047 50.6626 23.7715C51.3325 23.2383 52.1961 22.9717 53.2534 22.9717C54.2925 22.9717 55.1401 23.2383 55.7964 23.7715C56.4526 24.3001 56.7922 24.9906 56.8149 25.8428H55.3247C55.2791 25.3551 55.0672 24.9701 54.689 24.6875C54.3153 24.4049 53.8299 24.2637 53.2329 24.2637C52.6405 24.2637 52.1574 24.4004 51.7837 24.6738C51.4146 24.9473 51.23 25.3027 51.23 25.7402C51.23 26.0866 51.369 26.3714 51.647 26.5947C51.925 26.8135 52.383 27.0026 53.021 27.1621L54.1079 27.4287C55.1196 27.6657 55.8488 28.0007 56.2954 28.4336C56.7466 28.862 56.9722 29.4385 56.9722 30.1631C56.9722 31.0837 56.6304 31.8151 55.9468 32.3574C55.2632 32.8952 54.3358 33.1641 53.1646 33.1641C52.0662 33.1641 51.1753 32.902 50.4917 32.3779C49.8127 31.8493 49.4504 31.1406 49.4048 30.252ZM62.4272 27.3877C62.1037 27.0413 61.6867 26.8682 61.1763 26.8682C60.6659 26.8682 60.242 27.0436 59.9048 27.3945C59.5675 27.7409 59.3807 28.1898 59.3442 28.7412H62.9399C62.9217 28.1852 62.7508 27.734 62.4272 27.3877ZM62.9331 30.8877H64.3345C64.2297 31.5485 63.8924 32.0885 63.3228 32.5078C62.7531 32.9271 62.0581 33.1367 61.2378 33.1367C60.1851 33.1367 59.3556 32.8063 58.7495 32.1455C58.1479 31.4801 57.8472 30.5778 57.8472 29.4385C57.8472 28.3083 58.1479 27.3991 58.7495 26.7109C59.3556 26.0228 60.1646 25.6787 61.1763 25.6787C62.1698 25.6787 62.9582 26.0046 63.5415 26.6562C64.1248 27.3034 64.4165 28.1738 64.4165 29.2676V29.7734H59.3374V29.8623C59.3374 30.4912 59.5129 30.9948 59.8638 31.373C60.2147 31.7513 60.6841 31.9404 61.272 31.9404C61.6867 31.9404 62.0422 31.8447 62.3384 31.6533C62.6346 31.4619 62.8328 31.2067 62.9331 30.8877ZM68.0806 31.9541C68.6001 31.9541 69.0353 31.7969 69.3862 31.4824C69.7417 31.1634 69.9194 30.7715 69.9194 30.3066V29.7393L68.1489 29.8486C67.7069 29.8805 67.3651 29.9899 67.1235 30.1768C66.8866 30.359 66.7681 30.6051 66.7681 30.915C66.7681 31.2295 66.8866 31.4824 67.1235 31.6738C67.3651 31.8607 67.6841 31.9541 68.0806 31.9541ZM67.6704 33.123C66.964 33.123 66.3875 32.9225 65.9409 32.5215C65.4989 32.1204 65.2778 31.5986 65.2778 30.9561C65.2778 30.3271 65.5103 29.8281 65.9751 29.459C66.4399 29.0853 67.0985 28.8757 67.9507 28.8301L69.9194 28.7139V28.1602C69.9194 27.7591 69.7918 27.4469 69.5366 27.2236C69.2814 26.9958 68.9282 26.8818 68.4771 26.8818C68.0578 26.8818 67.716 26.9753 67.4517 27.1621C67.1919 27.349 67.0278 27.6064 66.9595 27.9346H65.5649C65.606 27.2692 65.8931 26.7269 66.4263 26.3076C66.9595 25.8883 67.6613 25.6787 68.5317 25.6787C69.4022 25.6787 70.0949 25.8929 70.6099 26.3213C71.1294 26.7497 71.3892 27.3239 71.3892 28.0439V33H69.9741V31.8174H69.9399C69.7349 32.2139 69.4227 32.5306 69.0034 32.7676C68.5887 33.0046 68.1444 33.123 67.6704 33.123ZM72.8247 33V25.8086H74.2329V27.0322H74.2671C74.3856 26.613 74.5975 26.2848 74.9028 26.0479C75.2082 25.8109 75.5728 25.6924 75.9966 25.6924C76.1379 25.6924 76.3065 25.7106 76.5024 25.7471V27.1211C76.3703 27.0664 76.1493 27.0391 75.8394 27.0391C75.3654 27.0391 74.9894 27.1872 74.7114 27.4834C74.438 27.7796 74.3013 28.1829 74.3013 28.6934V33H72.8247ZM83.2769 28.2832H81.8687C81.7912 27.8776 81.6043 27.5472 81.3081 27.292C81.0164 27.0368 80.6405 26.9092 80.1802 26.9092C79.606 26.9092 79.1457 27.1348 78.7993 27.5859C78.4575 28.0326 78.2866 28.6387 78.2866 29.4043C78.2866 30.1836 78.4575 30.7943 78.7993 31.2363C79.1457 31.6784 79.6105 31.8994 80.1938 31.8994C80.645 31.8994 81.0142 31.7832 81.3013 31.5508C81.5929 31.3138 81.7821 30.9857 81.8687 30.5664H83.2905C83.2131 31.3366 82.8895 31.9587 82.3198 32.4326C81.7547 32.902 81.0415 33.1367 80.1802 33.1367C79.1457 33.1367 78.3208 32.804 77.7056 32.1387C77.0903 31.4688 76.7827 30.5573 76.7827 29.4043C76.7827 28.265 77.0903 27.3604 77.7056 26.6904C78.3208 26.016 79.1411 25.6787 80.1665 25.6787C81.0597 25.6787 81.7843 25.9294 82.3403 26.4307C82.8963 26.9274 83.2085 27.5449 83.2769 28.2832ZM84.3911 33V23.1357H85.854V27.0117H85.8882C86.0887 26.5879 86.3826 26.262 86.77 26.0342C87.1574 25.8018 87.6222 25.6855 88.1646 25.6855C88.9484 25.6855 89.5636 25.9271 90.0103 26.4102C90.4614 26.8932 90.687 27.5449 90.687 28.3652V33H89.2036V28.6523C89.2036 28.1146 89.0692 27.6976 88.8003 27.4014C88.536 27.1051 88.1463 26.957 87.6313 26.957C87.089 26.957 86.6584 27.1302 86.3394 27.4766C86.0249 27.8184 85.8677 28.2741 85.8677 28.8438V33H84.3911Z" fill="#656565"/>
</svg>
